<?xml version="1.0" encoding="utf-8" ?>
<svg xmlns="http://www.w3.org/2000/svg" xmlns:xlink="http://www.w3.org/1999/xlink" width="1024" height="1024">
	<path fill="#1D2E3A" d="M479.964 180.052C472.132 142.856 452.093 109.924 425.904 82.7342C420.44 77.0606 414.623 72.0136 408.905 66.6526L408.959 66.3872C409.237 66.4931 409.517 66.5944 409.794 66.7048C415.527 68.9951 425.08 76.3686 430.37 80.1648C466.653 106.204 484.084 133.425 500.696 174.149C508.44 173.667 515.379 173.705 523.092 174.815Q523.378 173.828 523.697 172.852C526.735 163.482 531.049 154.491 535.649 145.799C554.268 110.619 580.815 84.6881 616.17 66.4507C576.259 99.8467 557.593 129.754 543.974 179.559C557.576 185.479 570.688 195.837 579.273 207.956C593.673 228.283 597.674 252.467 593.507 276.772C615.644 282.435 637.659 287.896 659.522 294.583Q679.105 300.645 698.415 307.529Q717.725 314.412 736.728 322.105Q755.73 329.798 774.39 338.286Q793.051 346.774 811.336 356.043C869.824 385.733 933.934 425.346 955.266 491.443C966.38 525.877 964.239 564.936 947.562 597.275C930.875 629.634 900.34 654.216 865.768 665.105C824.483 678.109 784.238 669.067 747.062 649.549C751.017 661.365 755.21 673.001 758.676 684.984C782.928 768.854 795.04 864.848 788.57 952.018C735.118 933.561 672.083 889.966 632.954 849.348Q625.997 842.131 619.43 834.559Q612.862 826.986 606.702 819.078Q600.542 811.171 594.807 802.95Q589.071 794.729 583.776 786.218C579.135 800.165 575.069 814.433 569.984 828.21Q561.955 849.341 552.521 869.882Q543.086 890.423 532.288 910.282C525.921 922.26 519.622 934.364 511.994 945.603C500.958 930.136 492.305 913.29 483.641 896.418C466.091 862.239 449.176 826.308 437.916 789.535C427.5 807.07 415.978 823.885 402.495 839.231C394.888 847.888 386.4 855.876 377.933 863.676C337.19 901.21 288.901 933.227 237.138 953.39C234.482 933.075 233.802 912.346 233.524 891.867Q233.363 884.203 233.387 876.538Q233.411 868.873 233.621 861.211Q233.83 853.548 234.224 845.893Q234.618 838.238 235.197 830.595Q235.776 822.952 236.539 815.325Q237.303 807.698 238.25 800.091Q239.197 792.485 240.327 784.903Q241.458 777.322 242.771 769.77Q244.084 762.218 245.58 754.7Q247.075 747.182 248.751 739.703Q250.427 732.223 252.284 724.786Q254.14 717.349 256.175 709.959Q258.211 702.569 260.424 695.23Q262.637 687.891 265.027 680.608Q267.417 673.325 269.982 666.102Q272.546 658.878 275.285 651.719C258.435 659.898 241.593 666.212 223.087 669.569C188.08 675.918 150.395 666.914 121.326 646.7Q119.906 645.73 118.51 644.726Q117.115 643.721 115.745 642.682Q114.375 641.643 113.032 640.57Q111.688 639.497 110.371 638.391Q109.055 637.285 107.767 636.146Q106.478 635.007 105.218 633.837Q103.959 632.667 102.729 631.465Q101.499 630.264 100.299 629.032Q99.0992 627.8 97.9306 626.539Q96.762 625.277 95.6252 623.987Q94.4883 622.697 93.3841 621.379Q92.2798 620.061 91.2087 618.716Q90.1376 617.371 89.1004 616Q88.0632 614.628 87.0605 613.231Q86.0579 611.834 85.0903 610.413Q84.1228 608.992 83.191 607.546Q82.2593 606.101 81.3638 604.633Q80.4684 603.165 79.6098 601.676Q78.7512 600.186 77.9301 598.675Q77.109 597.164 76.3258 595.634Q75.5425 594.103 74.7977 592.553Q74.0529 591.003 73.347 589.435Q72.6411 587.868 71.9745 586.283Q71.3079 584.698 70.6811 583.096Q70.0542 581.495 69.4675 579.879Q68.8807 578.263 68.3345 576.632Q67.7882 575.002 67.2828 573.358Q66.7774 571.715 66.3131 570.059Q65.8489 568.404 65.426 566.737Q65.0032 565.07 64.622 563.394Q64.2409 561.717 63.9017 560.031Q63.5625 558.346 63.2654 556.652C56.6005 518.814 68.3274 479.829 90.1367 448.794C140.588 377.002 264.947 326.861 346.892 300.135C374.354 291.178 402.504 282.253 430.989 277.295C427.626 260.389 427.003 243.998 433.22 227.621C441.82 204.967 458.232 189.905 479.964 180.052Z"/>
	<path fill="#36A8A9" d="M660.09 731.67C666.868 736.119 672.653 745.888 678.205 752.022C701.637 777.914 722.707 794.953 755.409 808.212C760.778 840.536 761.844 875.085 762.775 907.807C759.871 907.358 756.388 905.407 753.856 903.899C739.594 895.407 728.726 880.62 719.48 867.09C690.555 824.76 672.935 781.09 660.09 731.67Z"/>
	<path fill="#36A8A9" d="M365.727 721.883C366.298 730.541 348.223 781.596 343.973 791.982C330.668 824.499 304.451 880.281 276.189 901.519C271.729 904.871 266.857 906.942 261.754 909.082C261.089 901.885 261.295 894.318 261.331 887.092C261.462 860.871 264.222 834.972 265.617 808.831C309.798 786.639 342.406 767.88 365.727 721.883Z"/>
	<path fill="#36A8A9" d="M506.403 200.673Q507.589 200.518 508.782 200.418Q509.974 200.318 511.17 200.272Q512.365 200.227 513.562 200.236Q514.758 200.246 515.953 200.31Q517.148 200.375 518.338 200.494Q519.529 200.613 520.713 200.787Q521.896 200.961 523.071 201.189Q524.245 201.417 525.408 201.698Q526.571 201.98 527.72 202.315Q528.869 202.65 530.001 203.037Q531.133 203.424 532.246 203.863Q533.359 204.302 534.451 204.791Q535.543 205.281 536.611 205.82Q537.679 206.359 538.721 206.946Q539.764 207.534 540.778 208.169Q541.792 208.803 542.776 209.484C555.316 218.048 564.028 230.646 566.781 245.643C569.493 260.417 565.691 276.205 557.049 288.419C547.897 301.353 534.462 308.311 519.125 310.992C505.328 311.766 491.501 309.391 479.969 301.361C468.084 293.086 459.444 279.764 457.016 265.435Q456.793 264.045 456.638 262.646Q456.483 261.247 456.398 259.842Q456.312 258.437 456.295 257.029Q456.278 255.622 456.33 254.215Q456.383 252.809 456.504 251.406Q456.626 250.004 456.816 248.609Q457.006 247.214 457.264 245.831Q457.522 244.447 457.848 243.078Q458.174 241.708 458.567 240.356Q458.959 239.005 459.418 237.674Q459.876 236.343 460.4 235.036Q460.923 233.73 461.51 232.45Q462.097 231.171 462.746 229.922Q463.395 228.673 464.104 227.457Q464.814 226.241 465.582 225.062Q466.351 223.882 467.176 222.742C476.632 209.715 490.86 203.099 506.403 200.673Z"/>
	<path fill="#1D2E3A" d="M479.82 236.548C483.892 236.389 487.508 236.449 491.368 238.017C496.375 240.051 500.456 243.915 502.462 248.969C504.407 253.869 504.246 259.691 502.107 264.503C499.446 270.488 494.53 273.185 488.738 275.463C484.621 275.595 480.815 275.668 476.912 274.061Q476.455 273.874 476.008 273.665Q475.56 273.456 475.124 273.225Q474.688 272.995 474.263 272.742Q473.839 272.49 473.427 272.217Q473.016 271.944 472.619 271.651Q472.221 271.359 471.839 271.046Q471.456 270.734 471.09 270.403Q470.723 270.073 470.373 269.724Q470.024 269.376 469.692 269.011Q469.359 268.645 469.046 268.264Q468.732 267.883 468.438 267.486Q468.143 267.09 467.869 266.68Q467.595 266.269 467.341 265.846Q467.087 265.422 466.854 264.987Q466.622 264.551 466.411 264.105Q466.2 263.658 466.012 263.202Q465.83 262.746 465.67 262.281Q465.51 261.816 465.373 261.345Q465.237 260.873 465.123 260.395Q465.01 259.917 464.92 259.434Q464.83 258.951 464.764 258.464Q464.698 257.977 464.656 257.487Q464.613 256.998 464.595 256.507Q464.577 256.016 464.583 255.525Q464.589 255.033 464.619 254.543Q464.649 254.052 464.703 253.564Q464.757 253.076 464.835 252.591Q464.913 252.106 465.015 251.625Q465.116 251.144 465.241 250.669Q465.366 250.194 465.515 249.725Q465.663 249.257 465.834 248.796Q466.005 248.336 466.198 247.884C468.937 241.532 473.734 238.96 479.82 236.548Z"/>
	<path fill="#1D2E3A" d="M538.536 236.606C541.99 236.28 545.844 237.031 548.931 238.594C553.673 240.995 556.93 245.564 558.371 250.61C559.867 255.851 559.315 261.265 556.629 266.021C553.246 272.01 547.886 274.399 541.532 276.023C537.347 275.837 533.399 275.318 529.663 273.254Q529.245 273.026 528.839 272.777Q528.434 272.528 528.041 272.259Q527.649 271.989 527.271 271.7Q526.893 271.411 526.53 271.102Q526.167 270.794 525.821 270.467Q525.474 270.141 525.145 269.797Q524.816 269.453 524.505 269.092Q524.194 268.732 523.902 268.356Q523.61 267.98 523.338 267.59Q523.065 267.199 522.813 266.796Q522.561 266.392 522.33 265.975Q522.099 265.559 521.89 265.131Q521.681 264.704 521.494 264.266Q521.307 263.828 521.143 263.381Q520.979 262.935 520.838 262.48Q520.697 262.025 520.579 261.564Q520.452 261.085 520.349 260.601Q520.246 260.117 520.168 259.628Q520.089 259.139 520.036 258.647Q519.982 258.155 519.953 257.66Q519.925 257.166 519.921 256.671Q519.917 256.176 519.938 255.681Q519.96 255.187 520.006 254.694Q520.052 254.201 520.123 253.711Q520.194 253.221 520.289 252.735Q520.385 252.249 520.505 251.769Q520.625 251.288 520.769 250.815Q520.913 250.341 521.08 249.875Q521.248 249.409 521.439 248.952Q521.63 248.496 521.844 248.049Q522.057 247.602 522.293 247.167Q522.529 246.732 522.787 246.309C526.505 240.331 531.995 238.11 538.536 236.606Z"/>
	<path fill="#91E7EA" d="M405.174 530.938C406.573 534.036 405.156 545.361 405.09 549.6C404.835 565.737 405.409 582.087 406.217 598.211C407.943 632.651 411.013 667.526 417.018 701.499Q419.74 716.354 423.18 731.06C424.524 736.859 426.176 742.691 427.15 748.556Q424.863 753.088 422.446 757.552Q420.029 762.016 417.484 766.408Q414.939 770.8 412.268 775.117Q409.598 779.433 406.803 783.671Q404.008 787.909 401.092 792.064Q398.176 796.219 395.141 800.288Q392.106 804.357 388.955 808.336Q385.803 812.316 382.538 816.202Q379.273 820.089 375.897 823.88Q372.52 827.67 369.036 831.362Q365.552 835.053 361.962 838.642Q358.372 842.231 354.68 845.715Q350.988 849.199 347.197 852.574Q343.405 855.95 339.518 859.214Q335.631 862.478 331.651 865.629Q327.671 868.78 323.601 871.814C313.651 879.373 303.072 887.798 291.338 892.315C307.191 871.917 321.003 850.724 332.42 827.51C366.16 758.91 381.922 681.336 394.184 606.294C398.284 581.205 402.261 556.197 405.174 530.938Z"/>
	<path fill="#91E7EA" d="M595.257 746.009C595.073 738.132 599.284 726.841 600.859 718.767C605.01 697.495 608.984 675.906 611.455 654.373Q616.151 612.049 617.782 569.496C618.199 560.429 617.081 537.999 618.939 531.288C621.989 547.358 623.821 563.757 626.434 579.923Q632.622 620.296 640.513 660.371C651.685 719.365 665.369 780.108 694.012 833.379C705.551 854.839 719.175 873.667 735.016 892.072C669.441 855.535 631.076 811.081 595.257 746.009Z"/>
	<path fill="#36A8A9" d="M606.313 308.662C692.979 331.91 794.371 368.517 866.61 422.767C885.764 437.151 904.77 453.566 916.859 474.593C918.47 477.397 920.135 480.309 921.493 483.241Q912.424 480.593 903.415 477.749Q894.406 474.904 885.461 471.865Q876.516 468.826 867.639 465.593Q858.762 462.36 849.957 458.936Q841.152 455.511 832.424 451.896Q823.695 448.281 815.047 444.478Q806.4 440.674 797.836 436.684Q789.273 432.693 780.798 428.518Q772.324 424.343 763.942 419.985Q755.56 415.626 747.274 411.087Q738.989 406.548 730.804 401.83Q722.619 397.112 714.538 392.217Q706.458 387.323 698.485 382.254Q690.513 377.185 682.652 371.945Q674.792 366.704 667.047 361.294Q659.302 355.884 651.676 350.307C637.814 340.011 615.139 323.238 606.313 308.662Z"/>
	<path fill="#36A8A9" d="M100.725 483.306Q102.036 480.688 103.466 478.134C141.777 410.526 270.053 355.543 341.837 331.004Q365.138 323.059 388.825 316.355C397.43 313.976 406.153 312.069 414.749 309.66C403.992 325.933 375.086 346.423 359.02 357.936C294.703 404.027 226.977 443.791 151.6 468.878C134.939 474.423 117.901 479.619 100.725 483.306Z"/>
	<path fill="#267074" d="M619.586 509.856C619.712 509.953 619.847 510.039 619.962 510.149C621.812 511.917 632.25 531.881 634.758 536.002Q643.678 550.676 653.807 564.544C663.915 578.346 674.553 592.031 686.715 604.099Q692.387 609.834 698.414 615.195C702.582 618.857 707.86 622.587 711.148 627.08C714.536 631.711 716.192 641.501 718.06 647.171C734.939 698.394 748.121 750.063 754.671 803.711C738.058 797.602 723.369 789.273 709.695 778.053C698.018 768.471 665.088 734.405 658.367 721.659C652.275 710.108 648.502 683.058 645.801 669.241Q637.152 625.168 629.924 580.841C625.968 557.224 621.976 533.696 619.586 509.856Z"/>
	<path fill="#267074" d="M404.33 506.862C405.354 512.339 402.361 527.554 401.557 533.526C394.974 582.432 387.589 631.91 376.18 679.948Q374.146 688.832 371.421 697.529Q368.696 706.227 365.297 714.683C347.919 757.451 308.753 785.248 267.609 802.681C267.556 802.474 267.498 802.268 267.45 802.059C266.478 797.764 268.681 788.986 269.277 784.423C275.478 736.915 289.173 691.355 307.721 647.256C311.306 638.731 314.493 629.157 319.394 621.323C323.552 614.678 331.081 608.83 336.578 603.128Q347.433 591.645 357.552 579.509C370.658 563.542 382.05 545.67 392.456 527.858C396.512 520.914 400.202 513.764 404.33 506.862Z"/>
	<path fill="#91E7EA" d="M423.469 307.531C424.852 307.12 425.03 307.091 426.413 307.479C418.793 321.601 409.5 334.939 400.04 347.875Q390.711 360.667 380.73 372.956Q370.749 385.246 360.143 397.001Q349.537 408.756 338.335 419.943Q327.132 431.131 315.364 441.722C309.408 447.102 302.366 455.17 294.978 458.25C293.276 458.994 291.202 459.566 289.998 460.999L290.182 462.627C274.032 474.727 256.828 484.981 239.373 495.041C233.474 498.44 227.264 502.62 221.03 505.294L219.648 502.663C212.422 505.911 205.62 510.037 198.363 513.162C173.493 524.219 147.677 533.398 120.797 538.111C111.357 539.766 101.288 539.232 92.0551 541.243L90.7401 540.985C90.3251 540.546 90.0406 540.138 89.8557 539.555C86.1679 527.929 95.3266 494.606 100.725 483.306C117.901 479.619 134.939 474.423 151.6 468.878C226.977 443.791 294.703 404.027 359.02 357.936C375.086 346.423 403.992 325.933 414.749 309.66C417.591 308.773 420.476 307.683 423.469 307.531Z"/>
	<path d="M423.469 307.531C424.852 307.12 425.03 307.091 426.413 307.479C418.793 321.601 409.5 334.939 400.04 347.875Q390.711 360.667 380.73 372.956Q370.749 385.246 360.143 397.001Q349.537 408.756 338.335 419.943Q327.132 431.131 315.364 441.722C309.408 447.102 302.366 455.17 294.978 458.25C293.276 458.994 291.202 459.566 289.998 460.999L290.182 462.627C274.032 474.727 256.828 484.981 239.373 495.041C233.474 498.44 227.264 502.62 221.03 505.294L219.648 502.663C243.003 490.472 266.16 476.773 287.367 461.081C328.858 430.382 371.673 383.705 401.484 341.663C409.323 330.609 416.437 319.106 423.469 307.531Z"/>
	<path fill="#36A8A9" d="M290.182 462.627L289.998 460.999C291.202 459.566 293.276 458.994 294.978 458.25C295.093 467.273 293.253 476.896 291.72 485.775C283.217 535.041 260.393 584.604 225.295 620.591C219.083 626.96 211.216 632.895 205.559 639.333L199.5 643.456C198.307 643.093 197.228 642.503 196.12 641.942L194.815 642.731C181.218 643.614 153.662 635.51 143.057 627.375L140.276 626.23C124.149 616.84 110.672 601.182 102.176 584.757C98.8471 578.321 88.08 550.923 90.2983 543.929L91.3474 543.445C91.3614 542.392 91.5528 542.136 92.0551 541.243C101.288 539.232 111.357 539.766 120.797 538.111C147.677 533.398 173.493 524.219 198.363 513.162C205.62 510.037 212.422 505.911 219.648 502.663L221.03 505.294C227.264 502.62 233.474 498.44 239.373 495.041C256.828 484.981 274.032 474.727 290.182 462.627Z"/>
	<path fill="#001520" d="M290.182 462.627L289.998 460.999C291.202 459.566 293.276 458.994 294.978 458.25C295.093 467.273 293.253 476.896 291.72 485.775C283.217 535.041 260.393 584.604 225.295 620.591C219.083 626.96 211.216 632.895 205.559 639.333L199.5 643.456C198.307 643.093 197.228 642.503 196.12 641.942Q200.105 638.959 203.949 635.797Q207.794 632.635 211.489 629.3Q215.184 625.965 218.723 622.464Q222.261 618.963 225.636 615.303Q229.01 611.644 232.213 607.834Q235.416 604.023 238.442 600.07Q241.467 596.117 244.308 592.03Q247.148 587.942 249.799 583.729C269.413 552.834 280.701 520.209 287.6 484.434C288.843 477.989 291.618 469.051 290.182 462.627Z"/>
	<path fill="#267074" d="M198.363 513.162C205.62 510.037 212.422 505.911 219.648 502.663L221.03 505.294C219.093 506.395 217.54 506.933 216.901 509.21C215.541 514.054 215.265 519.166 214.081 524.057C209.656 542.342 201.769 563.312 190.487 578.471C187.583 583.028 184.683 587.735 180.893 591.619C171.174 605.815 156.838 617.319 143.057 627.375L140.276 626.23C124.149 616.84 110.672 601.182 102.176 584.757C98.8471 578.321 88.08 550.923 90.2983 543.929L91.3474 543.445C91.3614 542.392 91.5528 542.136 92.0551 541.243C101.288 539.232 111.357 539.766 120.797 538.111C147.677 533.398 173.493 524.219 198.363 513.162Z"/>
	<path fill="#001520" d="M189.748 575.571L189.692 577.833L190.487 578.471C187.583 583.028 184.683 587.735 180.893 591.619C171.174 605.815 156.838 617.319 143.057 627.375L140.276 626.23C147.887 620.366 155.686 614.703 162.695 608.107C168.177 602.949 172.957 597.174 178.134 591.735C182.161 586.434 185.975 581.055 189.748 575.571Z"/>
	<defs>
		<linearGradient id="gradient_0" gradientUnits="userSpaceOnUse" x1="213.79393" y1="542.03662" x2="195.77324" y2="539.05719">
			<stop offset="0" stop-color="#000100"/>
			<stop offset="1" stop-color="#001728"/>
		</linearGradient>
	</defs>
	<path fill="url(#gradient_0)" d="M198.363 513.162C205.62 510.037 212.422 505.911 219.648 502.663L221.03 505.294C219.093 506.395 217.54 506.933 216.901 509.21C215.541 514.054 215.265 519.166 214.081 524.057C209.656 542.342 201.769 563.312 190.487 578.471L189.692 577.833L189.748 575.571C191.751 570.424 195.751 565.574 198.144 560.473C205.998 543.731 211.05 527.007 214.281 508.831C209.743 510.549 205.415 512.675 201.051 514.784C200.18 514.071 199.357 513.662 198.363 513.162Z"/>
	<defs>
		<linearGradient id="gradient_1" gradientUnits="userSpaceOnUse" x1="144.44437" y1="523.59424" x2="146.5191" y2="535.58417">
			<stop offset="0" stop-color="#020000"/>
			<stop offset="1" stop-color="#001726"/>
		</linearGradient>
	</defs>
	<path fill="url(#gradient_1)" d="M92.0551 541.243C101.288 539.232 111.357 539.766 120.797 538.111C147.677 533.398 173.493 524.219 198.363 513.162C199.357 513.662 200.18 514.071 201.051 514.784C165.886 530.53 130.28 543.069 91.3474 543.445C91.3614 542.392 91.5528 542.136 92.0551 541.243Z"/>
	<path fill="#36A8A9" d="M431.85 304.329C433.923 303.939 435.972 303.227 437.995 302.629C437.987 319.526 435.5 336.676 431.879 353.163C429.756 362.831 426.391 373.066 425.809 382.949C424.029 387.811 419.18 404.041 418.666 408.469C413.804 422.678 408.908 436.858 402.984 450.67C373.912 518.453 324.45 595.861 255.971 629.319C240.006 637.12 217.255 644.635 199.5 643.456L205.559 639.333C211.216 632.895 219.083 626.96 225.295 620.591C260.393 584.604 283.217 535.041 291.72 485.775C293.253 476.896 295.093 467.273 294.978 458.25C302.366 455.17 309.408 447.102 315.364 441.722Q327.132 431.131 338.335 419.943Q349.537 408.756 360.143 397.001Q370.749 385.246 380.73 372.956Q390.711 360.667 400.04 347.875C409.5 334.939 418.793 321.601 426.413 307.479C426.483 307.344 426.541 307.202 426.624 307.075C427.798 305.295 429.934 304.873 431.85 304.329Z"/>
	<path fill="#91E7EA" d="M431.85 304.329C433.923 303.939 435.972 303.227 437.995 302.629C437.987 319.526 435.5 336.676 431.879 353.163C429.756 362.831 426.391 373.066 425.809 382.949C424.029 387.811 419.18 404.041 418.666 408.469C413.804 422.678 408.908 436.858 402.984 450.67C373.912 518.453 324.45 595.861 255.971 629.319C240.006 637.12 217.255 644.635 199.5 643.456L205.559 639.333C209.666 638.102 213.689 635.41 217.276 633.099C229.961 624.926 242.559 615.86 253.974 605.972C271.381 590.894 286.859 574.128 301.723 556.582C309.101 547.873 316.609 539.207 323.498 530.102C371.083 467.217 415.435 381.301 431.85 304.329Z"/>
	<path fill="#575F68" d="M437.995 302.629C439.22 302.023 440.307 301.264 441.716 301.567C446.302 305.506 449.489 311 453.996 315.218C471.867 331.943 494.929 341.068 519.475 339.166Q520.463 339.081 521.448 338.971Q522.433 338.861 523.415 338.727Q524.397 338.593 525.376 338.434Q526.355 338.276 527.329 338.093Q528.303 337.911 529.273 337.704Q530.242 337.497 531.206 337.267Q532.171 337.036 533.129 336.782Q534.087 336.528 535.038 336.25Q535.99 335.972 536.934 335.67Q537.879 335.369 538.815 335.044Q539.752 334.719 540.68 334.372Q541.609 334.024 542.528 333.653Q543.448 333.283 544.357 332.889Q545.267 332.496 546.167 332.08Q547.067 331.665 547.957 331.227Q548.846 330.789 549.724 330.329Q550.603 329.87 551.469 329.388Q552.336 328.907 553.19 328.404Q554.045 327.902 554.887 327.378Q555.728 326.855 556.557 326.31Q557.385 325.766 558.2 325.201Q559.015 324.637 559.816 324.052Q560.616 323.468 561.402 322.863Q562.188 322.259 562.959 321.636Q563.73 321.012 564.485 320.37Q565.24 319.728 565.979 319.067Q566.718 318.406 567.44 317.727Q568.162 317.048 568.867 316.351Q569.573 315.655 570.261 314.941Q570.949 314.227 571.619 313.496Q572.289 312.766 572.94 312.019Q573.592 311.272 574.225 310.509C576.492 307.827 578.587 304.989 580.64 302.14C582.704 302.716 584.86 303.485 586.989 303.72C586.86 322.111 589.411 339.897 593.264 357.857C595.309 367.389 598.607 377.331 599.089 387.088C601.595 394.873 603.662 402.794 606.157 410.583C605.622 411.52 605.494 412.238 605.511 413.297C605.714 426.207 610.673 440.319 610.481 454.449C598.527 465.238 588.202 477.335 577.414 489.25Q560.039 508.095 542.992 527.237C532.674 538.843 522.648 550.678 511.884 561.882C489.099 537.33 467.147 511.988 444.574 487.235C436.388 478.259 422.728 461.891 413.62 455.366C414.353 448.011 420.746 412.859 418.666 408.469C419.18 404.041 424.029 387.811 425.809 382.949C426.391 373.066 429.756 362.831 431.879 353.163C435.5 336.676 437.987 319.526 437.995 302.629Z"/>
	<path fill="#E9E9E8" d="M437.995 302.629C439.22 302.023 440.307 301.264 441.716 301.567C446.302 305.506 449.489 311 453.996 315.218C471.867 331.943 494.929 341.068 519.475 339.166Q520.463 339.081 521.448 338.971Q522.433 338.861 523.415 338.727Q524.397 338.593 525.376 338.434Q526.355 338.276 527.329 338.093Q528.303 337.911 529.273 337.704Q530.242 337.497 531.206 337.267Q532.171 337.036 533.129 336.782Q534.087 336.528 535.038 336.25Q535.99 335.972 536.934 335.67Q537.879 335.369 538.815 335.044Q539.752 334.719 540.68 334.372Q541.609 334.024 542.528 333.653Q543.448 333.283 544.357 332.889Q545.267 332.496 546.167 332.08Q547.067 331.665 547.957 331.227Q548.846 330.789 549.724 330.329Q550.603 329.87 551.469 329.388Q552.336 328.907 553.19 328.404Q554.045 327.902 554.887 327.378Q555.728 326.855 556.557 326.31Q557.385 325.766 558.2 325.201Q559.015 324.637 559.816 324.052Q560.616 323.468 561.402 322.863Q562.188 322.259 562.959 321.636Q563.73 321.012 564.485 320.37Q565.24 319.728 565.979 319.067Q566.718 318.406 567.44 317.727Q568.162 317.048 568.867 316.351Q569.573 315.655 570.261 314.941Q570.949 314.227 571.619 313.496Q572.289 312.766 572.94 312.019Q573.592 311.272 574.225 310.509C576.492 307.827 578.587 304.989 580.64 302.14C582.704 302.716 584.86 303.485 586.989 303.72C586.86 322.111 589.411 339.897 593.264 357.857C595.309 367.389 598.607 377.331 599.089 387.088C594.911 393.927 591.908 401.524 587.873 408.473C579.854 422.282 570.22 435.043 560.483 447.665Q559.873 406.969 560.233 366.27C554.752 371.089 549.852 376.749 544.662 381.898Q528.767 397.656 512.525 413.056Q487.807 389.998 464.209 365.794C464.57 379.812 464.373 393.889 464.423 407.914C464.471 421.313 464.795 434.789 464.079 448.172C444.9 426.1 436.083 410.655 425.809 382.949C426.391 373.066 429.756 362.831 431.879 353.163C435.5 336.676 437.987 319.526 437.995 302.629Z"/>
	<path fill="#91E7EA" d="M586.989 303.72L590.571 304.702C592.763 305.164 594.615 305.291 596.035 307.164C597.111 307.127 598.206 307.009 599.268 307.193C601.695 307.53 603.956 308.019 606.313 308.662C615.139 323.238 637.814 340.011 651.676 350.307Q659.302 355.884 667.047 361.294Q674.792 366.704 682.652 371.945Q690.513 377.185 698.485 382.254Q706.458 387.323 714.538 392.217Q722.619 397.112 730.804 401.83Q738.989 406.548 747.274 411.087Q755.56 415.626 763.942 419.985Q772.324 424.343 780.798 428.518Q789.273 432.694 797.836 436.684Q806.4 440.674 815.047 444.478Q823.695 448.281 832.424 451.896Q841.152 455.511 849.957 458.936Q858.762 462.36 867.639 465.593Q876.516 468.826 885.461 471.865Q894.406 474.904 903.415 477.749Q912.424 480.593 921.493 483.241Q925.359 490.924 927.678 499.205C930.116 507.624 935.02 531.526 932.588 539.868C931.732 540.599 931.588 540.577 930.455 540.702L931.443 541.957C932.161 542.355 932.629 542.334 932.809 543.208C933.376 545.965 932.45 549.692 932 552.483C929.269 569.417 923.32 585.021 913.098 598.889C906.331 608.069 898.594 615.285 889.61 622.2C887.824 623.576 885.313 625.886 883.144 626.423L880.6 627.428L880.52 627.963C870.392 634.538 836.133 646.048 824.05 643.298C823.29 643.125 823.331 643.12 822.722 642.88C821.81 643.372 820.447 642.966 819.483 642.796C805.716 644.48 781.694 634.928 769.025 629.092C685.537 590.636 636.37 492.481 606.157 410.583C603.662 402.794 601.595 394.873 599.089 387.088C598.607 377.331 595.309 367.389 593.264 357.857C589.411 339.897 586.86 322.111 586.989 303.72Z"/>
	<path d="M596.035 307.164C597.111 307.127 598.206 307.009 599.268 307.193C641.938 382.541 704.624 442.591 778.06 487.652C807.827 505.917 839.736 522.055 873.525 531.39C892.488 536.629 910.933 538.959 930.455 540.702L931.443 541.957C898.686 541 871.492 535.417 841.078 522.919C835.178 520.494 814.939 510.148 810.661 509.651L809.574 509.612C807.99 506.644 793.63 499.758 789.675 497.51C769.304 485.926 749.847 472.688 730.797 459.053Q731.249 463.06 731.808 467.053Q732.368 471.047 733.034 475.024Q733.7 479.001 734.472 482.958Q735.244 486.916 736.122 490.852Q737 494.787 737.983 498.698Q738.966 502.609 740.053 506.492Q741.14 510.375 742.331 514.227Q743.522 518.08 744.815 521.899Q746.109 525.718 747.504 529.502Q748.9 533.285 750.396 537.029Q751.892 540.774 753.488 544.477Q755.084 548.18 756.778 551.839Q758.473 555.498 760.264 559.111Q762.056 562.723 763.944 566.286Q765.832 569.849 767.815 573.361Q769.797 576.872 771.873 580.329C776.989 588.989 783.901 597.146 788.723 605.494C788.934 606.913 789.273 608.434 789.316 609.862C762.201 576.185 741.836 533.227 733.323 490.821C731.112 479.812 730.608 468.79 728.895 457.757C717.561 447.691 705.103 439.047 693.814 428.833C654.433 393.203 623.429 352.521 596.035 307.164Z"/>
	<path fill="#36A8A9" d="M730.797 459.053C749.847 472.688 769.304 485.926 789.675 497.51C793.63 499.758 807.99 506.644 809.574 509.612L810.661 509.651C814.939 510.148 835.178 520.494 841.078 522.919C871.492 535.417 898.686 541 931.443 541.957C932.161 542.355 932.629 542.334 932.809 543.208C933.376 545.965 932.45 549.692 932 552.483C929.269 569.417 923.32 585.021 913.098 598.889C906.331 608.069 898.594 615.285 889.61 622.2C887.824 623.576 885.313 625.886 883.144 626.423L880.6 627.428L880.52 627.963C870.392 634.538 836.133 646.048 824.05 643.298C823.29 643.125 823.331 643.12 822.722 642.88C821.81 643.372 820.447 642.966 819.483 642.796C816.93 640.578 814.406 638.172 811.583 636.309L810.664 634.34C807.994 631.883 805.492 629.298 802.994 626.667C798.049 621.998 793.131 615.467 789.316 609.862C789.273 608.434 788.934 606.913 788.723 605.494C783.901 597.146 776.989 588.989 771.873 580.329Q769.797 576.872 767.815 573.361Q765.832 569.849 763.944 566.286Q762.056 562.723 760.265 559.111Q758.473 555.498 756.778 551.839Q755.084 548.18 753.488 544.477Q751.892 540.774 750.396 537.029Q748.9 533.285 747.504 529.502Q746.109 525.718 744.815 521.899Q743.522 518.08 742.331 514.227Q741.14 510.375 740.053 506.492Q738.966 502.609 737.983 498.698Q737 494.787 736.122 490.852Q735.244 486.916 734.472 482.958Q733.7 479.001 733.034 475.024Q732.368 471.047 731.808 467.053Q731.249 463.06 730.797 459.053Z"/>
	<path fill="#001520" d="M788.723 605.494Q796.818 615.63 805.168 625.558L811.197 632.073C815.04 635.667 818.95 639.214 822.722 642.88C821.81 643.372 820.447 642.966 819.483 642.796C816.93 640.578 814.406 638.172 811.583 636.309L810.664 634.34C807.994 631.883 805.492 629.298 802.994 626.667C798.049 621.998 793.131 615.467 789.316 609.862C789.273 608.434 788.934 606.913 788.723 605.494Z"/>
	<path fill="#001520" d="M809.574 509.612L810.661 509.651C811.724 516.391 813.719 522.934 815.571 529.49C823.938 559.107 837.052 583.691 859.081 605.377C866.693 612.87 875.545 618.999 883.144 626.423L880.6 627.428C852.321 607.378 827.938 575.577 816.942 542.695C813.355 531.971 811.542 520.723 809.574 509.612Z"/>
	<path fill="#267074" d="M810.661 509.651C814.939 510.148 835.178 520.494 841.078 522.919C871.492 535.417 898.686 541 931.443 541.957C932.161 542.355 932.629 542.334 932.809 543.208C933.376 545.965 932.45 549.692 932 552.483C929.269 569.417 923.32 585.021 913.098 598.889C906.331 608.069 898.594 615.285 889.61 622.2C887.824 623.576 885.313 625.886 883.144 626.423C875.545 618.999 866.693 612.87 859.081 605.377C837.052 583.691 823.938 559.107 815.571 529.49C813.719 522.934 811.724 516.391 810.661 509.651Z"/>
	<path fill="#36A8A9" d="M586.989 303.72L590.571 304.702C592.763 305.164 594.615 305.291 596.035 307.164C623.429 352.521 654.433 393.203 693.814 428.833C705.103 439.047 717.561 447.691 728.895 457.757C730.608 468.79 731.112 479.812 733.323 490.821C741.836 533.227 762.201 576.185 789.316 609.862C793.131 615.467 798.049 621.998 802.994 626.667C805.492 629.298 807.994 631.883 810.664 634.34L811.583 636.309C814.406 638.172 816.93 640.578 819.483 642.796C805.716 644.48 781.694 634.928 769.025 629.092C685.537 590.636 636.37 492.481 606.157 410.583C603.662 402.794 601.595 394.873 599.089 387.088C598.607 377.331 595.309 367.389 593.264 357.857C589.411 339.897 586.86 322.111 586.989 303.72Z"/>
	<path fill="#91E7EA" d="M586.989 303.72L590.571 304.702C597.287 325.675 603.394 346.48 611.39 367.044C644.861 453.132 696.35 533.942 763.768 597.393C774.272 607.278 796.806 629.112 809.257 635.266Q810.397 635.84 811.583 636.309C814.406 638.172 816.93 640.578 819.483 642.796C805.716 644.48 781.694 634.928 769.025 629.092C685.537 590.636 636.37 492.481 606.157 410.583C603.662 402.794 601.595 394.873 599.089 387.088C598.607 377.331 595.309 367.389 593.264 357.857C589.411 339.897 586.86 322.111 586.989 303.72Z"/>
	<path fill="#575F68" d="M610.481 454.449C610.809 459.506 611.014 464.605 611.784 469.618C612.301 471.843 612.106 474.559 612.342 476.887Q613.339 486.466 614.46 496.032Q615.687 507.072 617.165 518.081C617.748 522.216 619.061 527.124 618.939 531.288C617.081 537.999 618.199 560.429 617.782 569.496Q616.151 612.049 611.455 654.373C608.984 675.906 605.01 697.495 600.859 718.767C599.284 726.841 595.073 738.132 595.257 746.009C590.581 753.933 586.236 776.299 583.776 786.218C579.135 800.165 575.069 814.433 569.984 828.21Q561.955 849.341 552.521 869.882Q543.086 890.423 532.288 910.282C525.921 922.26 519.622 934.364 511.994 945.603C500.958 930.136 492.305 913.29 483.641 896.418C466.091 862.239 449.176 826.308 437.916 789.535C436.59 779.802 431.134 757.019 427.15 748.556C426.176 742.691 424.524 736.859 423.18 731.06Q419.74 716.354 417.018 701.499C411.013 667.526 407.943 632.651 406.217 598.211C405.409 582.087 404.835 565.737 405.09 549.6C405.156 545.361 406.573 534.036 405.174 530.938C406.349 518.527 408.17 506.169 409.566 493.78C410.505 485.442 410.871 476.88 412.492 468.641C412.337 464.24 413.111 459.734 413.62 455.366C422.728 461.891 436.388 478.259 444.574 487.235C467.147 511.988 489.099 537.33 511.884 561.882C522.648 550.678 532.674 538.843 542.992 527.237Q560.039 508.095 577.414 489.25C588.202 477.335 598.527 465.238 610.481 454.449Z"/>
	<path fill="#E9E9E8" d="M571.679 765.493L572.276 765.723C565.673 772.781 558.389 779.464 551.468 786.226Q531.942 805.414 512.021 824.192C505.256 818.677 499.26 812.348 492.958 806.33C485.215 798.936 477.213 791.776 469.302 784.563C464.321 779.765 459.281 775.023 454.627 769.901C474.062 778.992 493.589 787.836 512.485 798.021C532.595 787.796 552.104 776.69 571.679 765.493Z"/>
	<path fill="#E9E9E8" d="M444.278 700.532C454.879 701.663 472.13 710.859 482.242 715.256Q497.301 721.735 512.468 727.956C521.078 724.877 529.551 720.798 537.993 717.249Q558.831 708.368 580.179 700.793C575.728 704.785 571.266 708.668 566.613 712.424C548.846 726.806 529.924 740.106 511.458 753.582C501.656 744.742 490.548 736.901 480.128 728.794C468.121 719.453 456.422 709.689 444.278 700.532Z"/>
	<path fill="#E9E9E8" d="M432.486 622.956C438.109 622.907 455.373 630.218 462.057 632.438Q479.079 637.946 496.314 642.743C501.057 644.061 506.267 645.971 511.166 646.395C520.026 647.161 577.034 627.008 589.488 622.497L573.504 634.643C554.096 649.154 532.579 661.275 511.996 674.023C484.927 657.705 458.789 640.45 432.486 622.956Z"/>
	<path fill="#E9E9E8" d="M610.481 454.449C610.809 459.506 611.014 464.605 611.784 469.618C611.199 473.207 603.035 482.836 600.664 486.495C573.116 528.997 545.902 571.165 511.929 608.965C474.28 564.074 442.607 518.878 412.492 468.641C412.337 464.24 413.111 459.734 413.62 455.366C422.728 461.891 436.388 478.259 444.574 487.235C467.147 511.988 489.099 537.33 511.884 561.882C522.648 550.678 532.674 538.843 542.992 527.237Q560.039 508.095 577.414 489.25C588.202 477.335 598.527 465.238 610.481 454.449Z"/>
</svg>
